<svg width="53" height="53" viewBox="0 0 53 53" fill="none" xmlns="http://www.w3.org/2000/svg">
<path d="M9.34979 46.6157C19.6632 55.4162 35.178 54.9408 44.9294 45.1893C54.6809 35.4379 55.1563 19.9231 46.3558 9.60968L34.3694 21.5961C36.6699 25.2471 36.2301 30.1298 33.05 33.3099C29.87 36.49 24.9872 36.9298 21.3362 34.6293L9.34979 46.6157Z" fill="#4F5469"/>
<path d="M30.0802 22.9154C32.1305 24.9656 32.1305 28.2897 30.0802 30.34C28.03 32.3902 24.7059 32.3902 22.6556 30.34C20.6054 28.2897 20.6054 24.9656 22.6556 22.9154C24.7059 20.8651 28.03 20.8651 30.0802 22.9154Z" fill="#4F5469"/>
<path d="M43.386 6.6398C33.0726 -2.1607 17.5578 -1.68524 7.80637 8.06619C-1.94506 17.8176 -2.42053 33.3324 6.37997 43.6458L18.3664 31.6594C16.0659 28.0084 16.5057 23.1257 19.6858 19.9456C22.8659 16.7655 27.7486 16.3257 31.3996 18.6262L43.386 6.6398Z" fill="#3E4051"/>
</svg>
