<svg width="1147" height="1146" viewBox="0 0 1147 1146" fill="none" xmlns="http://www.w3.org/2000/svg">
<path d="M1084.92 354.816L1093.09 351.951L1089.59 344.032C971.671 77.3075 666.481 -58.0642 386.564 40.0978C106.646 138.26 -47.1535 434.591 27.3373 716.546L29.5489 724.917L37.7193 722.051L376.914 603.102L382.942 600.988L382.214 594.642C372.208 507.363 423.357 421.656 509.745 391.361C596.134 361.067 689.609 396.056 736.305 470.469L739.7 475.879L745.728 473.766L1084.92 354.816ZM61.8963 790.994L53.7259 793.86L57.2268 801.778C175.148 1068.5 480.338 1203.87 760.256 1105.71C1040.17 1007.55 1193.97 711.22 1119.48 429.265L1117.27 420.894L1109.1 423.759L769.905 542.708L763.877 544.822L764.605 551.169C774.611 638.448 723.462 724.154 637.074 754.449C550.685 784.744 457.21 749.754 410.514 675.342L407.119 669.931L401.091 672.045L61.8963 790.994ZM612.897 685.506C675.084 663.698 707.819 595.606 686.01 533.418C664.202 471.23 596.11 438.496 533.922 460.304C471.735 482.112 439.001 550.204 460.809 612.392C482.617 674.58 550.709 707.314 612.897 685.506Z" fill="url(#paint0_linear_29_15)" stroke="url(#paint1_linear_29_15)" stroke-width="16"/>
<path d="M594.823 465.678C631.158 473.195 662.763 499.03 675.935 536.593C695.916 593.569 665.925 655.955 608.949 675.935C589.011 682.927 568.41 683.8 549.197 679.538C500.47 668.521 464.086 624.962 464.086 572.905C464.086 512.527 513.032 463.581 573.41 463.581C580.738 463.581 587.898 464.302 594.823 465.678ZM389.234 49.4003C663.497 -46.7785 962.468 85.2815 1078.93 345.963L743.282 463.669C693.878 386.315 596.165 350.101 505.798 381.791C415.431 413.481 361.736 502.791 371.465 594.058L35.8182 711.763C-36.0395 435.44 114.972 145.579 389.234 49.4003ZM756.308 1096.14C482.046 1192.32 183.074 1060.26 66.6137 799.579L402.261 681.874C451.664 759.228 549.377 795.441 639.744 763.751C730.112 732.061 783.806 642.751 774.077 551.485L1109.72 433.779C1181.58 710.102 1030.57 999.963 756.308 1096.14Z" stroke="url(#paint2_linear_29_15)" stroke-width="4"/>
<defs>
<linearGradient id="paint0_linear_29_15" x1="573.409" y1="16.2857" x2="573.409" y2="1129.52" gradientUnits="userSpaceOnUse">
<stop stop-color="#CCCCCC"/>
<stop offset="1" stop-color="#CCCCCC" stop-opacity="0"/>
</linearGradient>
<linearGradient id="paint1_linear_29_15" x1="573.409" y1="16.2857" x2="573.409" y2="1129.52" gradientUnits="userSpaceOnUse">
<stop stop-color="white" stop-opacity="0.5"/>
<stop offset="0.666667" stop-color="white" stop-opacity="0"/>
</linearGradient>
<linearGradient id="paint2_linear_29_15" x1="573.406" y1="16.2857" x2="573.406" y2="1129.52" gradientUnits="userSpaceOnUse">
<stop stop-opacity="0.1"/>
<stop offset="0.713542" stop-opacity="0"/>
</linearGradient>
</defs>
</svg>
