<svg width="50" height="50" viewBox="0 0 50 50" fill="none" xmlns="http://www.w3.org/2000/svg">
<path d="M8.79224 44.0362C18.6146 52.4176 33.3905 51.9648 42.6776 42.6777C51.9647 33.3906 52.4175 18.6147 44.036 8.79234L32.6204 20.208C34.8114 23.6851 34.3925 28.3353 31.3639 31.364C28.3352 34.3926 23.685 34.8115 20.2079 32.6205L8.79224 44.0362Z" fill="#4A4F63"/>
<path d="M28.5355 21.4644C30.4881 23.417 30.4881 26.5828 28.5355 28.5354C26.5829 30.4881 23.4171 30.4881 21.4645 28.5354C19.5118 26.5828 19.5118 23.417 21.4645 21.4644C23.4171 19.5118 26.5829 19.5118 28.5355 21.4644Z" fill="#353746"/>
<path d="M41.2077 5.96386C31.3853 -2.41756 16.6094 -1.96474 7.32232 7.32232C-1.96474 16.6094 -2.41757 31.3854 5.96385 41.2077L17.3795 29.792C15.1885 26.3149 15.6074 21.6647 18.636 18.636C21.6647 15.6074 26.3149 15.1885 29.792 17.3795L41.2077 5.96386Z" fill="#353746"/>
</svg>
