<svg width="40" height="40" viewBox="0 0 40 40" fill="none" xmlns="http://www.w3.org/2000/svg">
<path d="M7.03381 35.229C14.8917 41.9341 26.7125 41.5718 34.1421 34.1422C41.5718 26.7125 41.934 14.8917 35.2289 7.03387L26.0964 16.1664C27.8492 18.9481 27.5141 22.6683 25.0912 25.0912C22.6682 27.5141 18.9481 27.8492 16.1663 26.0964L7.03381 35.229Z" fill="black" fill-opacity="0.15"/>
<path d="M22.8284 17.1715C24.3905 18.7336 24.3905 21.2663 22.8284 22.8284C21.2663 24.3905 18.7337 24.3905 17.1716 22.8284C15.6095 21.2663 15.6095 18.7336 17.1716 17.1715C18.7337 15.6094 21.2663 15.6094 22.8284 17.1715Z" fill="black" fill-opacity="0.3"/>
<path d="M32.9662 4.77109C25.1083 -1.93405 13.2875 -1.5718 5.85787 5.85786C-1.57179 13.2875 -1.93405 25.1083 4.77109 32.9662L13.9036 23.8336C12.1508 21.0519 12.4859 17.3318 14.9088 14.9088C17.3318 12.4859 21.0519 12.1508 23.8337 13.9036L32.9662 4.77109Z" fill="black" fill-opacity="0.3"/>
</svg>
