<svg width="30" height="30" viewBox="0 0 30 30" fill="none" xmlns="http://www.w3.org/2000/svg">
<path fill-rule="evenodd" clip-rule="evenodd" d="M25.4823 21.4758C22.0668 27.3321 14.5022 29.3386 8.5864 25.9575C7.71132 25.4573 6.92134 24.8673 6.22147 24.206C4.47695 22.5576 3.29238 20.4663 2.74563 18.2196C2.02888 15.2745 2.40825 12.0625 4.05917 9.23182C4.40142 8.645 4.80998 8.09201 5.27244 7.57441C6.30292 6.42108 7.60101 5.44351 9.02937 4.65914C11.0967 3.52387 13.437 2.79335 15.6336 2.52051C18.0354 2.22219 20.2656 2.47108 21.7796 3.33638C23.194 4.14477 24.4503 5.75804 25.3759 7.76736C27.254 11.8447 27.7702 17.5529 25.4823 21.4758ZM10.4011 12.7765C12.2086 12.0913 12.9807 9.74407 12.1257 7.53382C11.8297 6.7687 11.3775 6.12029 10.8378 5.62789C10.3538 5.18634 9.63577 5.18929 9.07107 5.52145C7.81037 6.26303 6.67314 7.17007 5.77338 8.22785C5.43992 8.61987 5.3018 9.14832 5.45124 9.6408C5.48917 9.76578 5.53215 9.89065 5.58029 10.0151C6.4353 12.2253 8.59366 13.4616 10.4011 12.7765ZM5.5144 22.1811C6.17279 23.0594 7.51182 23.021 7.87829 21.9862C8.25679 20.9176 8.16686 19.7958 7.52566 18.9376C7.01724 18.2572 6.24729 17.8563 5.38037 17.7421C4.33635 17.6045 3.69734 18.7158 4.09836 19.6895C4.46103 20.5701 4.93508 21.4082 5.5144 22.1811ZM15.3331 14.9786C15.5512 15.8315 16.5908 16.3067 17.6551 16.04C18.7195 15.7733 19.4055 14.8657 19.1874 14.0128C18.9693 13.1599 17.9297 12.6846 16.8653 12.9513C15.801 13.218 15.115 14.1256 15.3331 14.9786ZM22.7701 22.5098C21.6944 24.6234 19.4211 25.638 17.6926 24.776C15.9642 23.9139 15.435 21.5016 16.5108 19.3879C17.5865 17.2743 19.8598 16.2597 21.5882 17.1217C23.3167 17.9838 23.8458 20.3961 22.7701 22.5098ZM21.3673 4.04329C20.2319 3.39433 18.6636 3.11892 16.9266 3.18293C16.0337 3.21583 15.2983 3.94728 15.5102 4.81526C15.8557 6.23035 16.9199 7.62796 18.5089 8.53617C20.2184 9.51316 22.1195 9.68625 23.5779 9.14233C24.3886 8.83994 24.597 7.86059 24.1686 7.1088C23.3854 5.73457 22.4242 4.64731 21.3673 4.04329Z" fill="#E39851"/>
</svg>
