<svg width="30" height="30" viewBox="0 0 30 30" fill="none" xmlns="http://www.w3.org/2000/svg">
<path fill-rule="evenodd" clip-rule="evenodd" d="M8.66197 16.662L3.38028 23.7042L0 23.9859L3.80282 25.3944L7.1831 24.5493L10.5634 25.3944L16.4789 24.5493L19.4366 25.8169L23.2394 24.9718L26.6197 25.8169L30 25.3944L27.4648 24.1268L24.507 16.0986L21.5493 15.2535L17.3239 8.07043L15.2113 11.0282H13.0986L10.3521 17.5071L8.66197 16.662ZM6.5493 20.8873L8.66197 17.7887L9.92958 18.6338L13.0986 23.4225L10.5634 23.9859L9.08451 20.324L6.5493 20.8873ZM19.8592 14.4085L16.2676 11.3099L17.3239 10.1831L19.8592 14.4085ZM13.9437 11.8733L14.7887 16.0986L17.7465 18.2113L19.0141 21.5916L22.8169 23.7042L26.6197 24.1268L22.8169 22.8592L20.2817 19.9014L18.5915 16.0986L15.6338 11.8733H13.9437ZM23.662 16.9437L26.1972 22.8592L21.5493 17.7887L23.662 16.9437Z" fill="#766047"/>
<path d="M11.7606 7.38028C11.7606 9.24716 10.2472 10.7606 8.38028 10.7606C6.5134 10.7606 5 9.24716 5 7.38028C5 6.82324 5.13474 6.29767 5.37341 5.83438C5.3502 5.95172 5.33803 6.07303 5.33803 6.19718C5.33803 7.22397 6.1704 8.05634 7.19718 8.05634C8.22397 8.05634 9.05634 7.22397 9.05634 6.19718C9.05634 5.1704 8.22397 4.33803 7.19718 4.33803C7.07303 4.33803 6.95172 4.3502 6.83438 4.37341C7.29767 4.13474 7.82324 4 8.38028 4C10.2472 4 11.7606 5.5134 11.7606 7.38028Z" fill="#72BACA"/>
</svg>
