<svg width="193" height="193" viewBox="0 0 193 193" fill="none" xmlns="http://www.w3.org/2000/svg">
<path d="M171.454 46.152C179.073 57.6034 184.149 70.8919 185.876 85.2113C186.087 86.9549 184.702 88.458 182.945 88.458H130.294C128.908 88.458 127.716 87.5028 127.294 86.1828C123.079 73.0024 110.73 63.459 96.1506 63.459C81.5716 63.459 69.2216 73.0024 65.0069 86.1828C64.5847 87.5028 63.3931 88.458 62.0071 88.458H9.35576C7.59952 88.458 6.21479 86.9515 6.4252 85.2079C11.8264 40.452 49.9382 5.76904 96.1506 5.76904C112.217 5.76904 127.305 9.96141 140.379 17.3119M96.1506 186.531C49.9382 186.531 11.8264 151.848 6.4252 107.092C6.21479 105.349 7.59952 103.842 9.35576 103.842H62.0071C63.3931 103.842 64.5847 104.797 65.0069 106.117C69.2216 119.298 81.5716 128.841 96.1506 128.841C110.73 128.841 123.079 119.298 127.294 106.117C127.716 104.797 128.908 103.842 130.294 103.842H182.945C184.702 103.842 186.086 105.349 185.876 107.092C180.475 151.848 142.363 186.531 96.1506 186.531ZM109.611 96.15C109.611 103.584 103.585 109.611 96.1503 109.611C88.716 109.611 82.6893 103.584 82.6893 96.15C82.6893 88.7157 88.716 82.689 96.1503 82.689C103.585 82.689 109.611 88.7157 109.611 96.15Z" stroke="#324E67" stroke-width="5" stroke-linecap="round" stroke-linejoin="round"/>
</svg>
