<svg width="40" height="40" viewBox="0 0 40 40" fill="none" xmlns="http://www.w3.org/2000/svg">
<path d="M2.67181 22.5808L0.459703 24.7929C-0.153236 25.4058 -0.153234 26.3921 0.459705 27.005L5.25261 31.7979L4.14655 32.904C3.94377 33.1067 3.94378 33.4386 4.14655 33.6413L6.35866 35.8534C6.56144 36.0562 6.89326 36.0562 7.09603 35.8534L8.20209 34.7474L12.995 39.5403C13.6079 40.1532 14.5942 40.1532 15.2071 39.5403L17.4192 37.3282C18.0321 36.7152 18.0321 35.729 17.4192 35.1161L4.88392 22.5808C4.27098 21.9679 3.28475 21.9679 2.67181 22.5808ZM32.904 4.14655L31.7979 5.25261L27.005 0.459704C26.3921 -0.153235 25.4058 -0.153235 24.7929 0.459704L22.5808 2.67181C21.9679 3.28475 21.9679 4.27098 22.5808 4.88392L35.1161 17.4192C35.729 18.0321 36.7152 18.0321 37.3282 17.4192L39.5403 15.2071C40.1532 14.5942 40.1532 13.6079 39.5403 12.995L34.7474 8.20209L35.8534 7.09603C36.0562 6.89325 36.0562 6.56144 35.8534 6.35866L33.6413 4.14655C33.4386 3.94378 33.1067 3.94377 32.904 4.14655ZM15.9445 3.40918L13.7324 5.62129C13.1194 6.23423 13.1194 7.22046 13.7324 7.8334L21.4747 15.5758L15.5758 21.4747L7.8334 13.7324C7.22046 13.1194 6.23423 13.1194 5.62129 13.7324L3.40918 15.9445C2.79624 16.5574 2.79624 17.5436 3.40918 18.1566L21.8434 36.5908C22.4564 37.2038 23.4426 37.2038 24.0555 36.5908L26.2676 34.3787C26.8806 33.7658 26.8806 32.7795 26.2676 32.1666L18.5253 24.4242L24.4242 18.5253L32.1666 26.2676C32.7795 26.8806 33.7658 26.8806 34.3787 26.2676L36.5908 24.0555C37.2038 23.4426 37.2038 22.4564 36.5908 21.8434L18.1566 3.40918C17.5436 2.79624 16.5574 2.79624 15.9445 3.40918Z" fill="#4A4F63"/>
</svg>
