<svg width="30" height="30" viewBox="0 0 30 30" fill="none" xmlns="http://www.w3.org/2000/svg">
<path d="M7.09555 8.39971C8.30313 5.4815 11.4226 6.08526 13.6319 4.97146C13.6319 4.97146 10.5106 1.91467 7.88621 3.60398C5.89519 4.88558 7.09555 8.39971 7.09555 8.39971Z" fill="#70C287"/>
<path d="M15.2302 12.7786C13.9492 9.04694 9.55914 11.1009 7.90679 8.386C9.38601 6.80208 11.7449 6.29852 13.4479 6.89104C15.5836 7.63409 17.0287 10.2941 15.2302 12.7786Z" fill="#70C287"/>
<path d="M7.22138 12.5254C7.72451 11.1598 7.4233 10.1554 6.81886 9.20472C6.81886 9.20472 3.34724 10.6135 3.69944 13.431C4.22926 17.6697 8.12704 17.9593 8.12704 17.9593C6.51698 16.2486 6.66525 14.0348 7.22138 12.5254Z" fill="#70C287"/>
<path d="M0.0517596 11.821C1.46054 8.19846 4.57997 10.7616 6.69311 8.60097C6.69311 8.60097 4.57997 5.54736 2.36606 6.38719C-0.552113 7.49417 0.0517596 11.821 0.0517596 11.821Z" fill="#70C287"/>
<path d="M18.8853 9.59973C20.6866 10.5045 23.2301 10.0141 24.2147 12.3847C24.2147 12.3847 25.1934 9.52996 23.57 8.48883C21.4302 7.11649 18.8853 9.59973 18.8853 9.59973Z" fill="#70C287"/>
<path d="M17.5821 15.942C18.6265 12.9105 22.206 14.5791 23.5532 12.3736C22.3471 11.0869 20.4238 10.6778 19.0353 11.1591C17.2939 11.7628 16.1157 13.9237 17.5821 15.942Z" fill="#70C287"/>
<path d="M24.1121 15.7363C23.7018 14.6269 23.9474 13.811 24.4403 13.0387C24.4403 13.0387 27.2708 14.1831 26.9837 16.472C26.5517 19.9153 23.3736 20.1506 23.3736 20.1506C24.6864 18.7609 24.5655 16.9625 24.1121 15.7363Z" fill="#70C287"/>
<path d="M29.9578 15.1641C28.8092 12.2212 26.2657 14.3034 24.5428 12.5482C24.5428 12.5482 26.2657 10.0676 28.0708 10.7498C30.4502 11.6491 29.9578 15.1641 29.9578 15.1641Z" fill="#70C287"/>
<path d="M7.04932 8.65735C9.81459 11.9343 10.9102 17.4125 10.472 20.9186C11.3485 20.2612 13.1015 20.0421 13.978 20.0421C13.7589 16.3169 11.7868 11.2769 7.04932 8.65735Z" fill="#A57960"/>
<path d="M24.156 12.4811C21.5094 14.4925 19.0789 17.7137 18.4202 20.2293C19.6198 20.409 20.3579 20.6092 21.439 21.135C21.439 18.2168 22.6466 15.0974 24.156 12.4811Z" fill="#A57960"/>
<path d="M10.5507 21.2848C11.5705 20.8672 12.6581 20.5837 13.7708 20.4343C17.7304 19.9028 22.0069 21.0701 24.67 23.9363C25.0145 24.307 24.976 24.8856 24.5531 25.1636C20.7723 27.649 10.575 27.6472 6.80386 25.158C6.38502 24.8816 6.34397 24.309 6.68197 23.938C7.74336 22.7731 9.07611 21.8887 10.5507 21.2848Z" fill="#D1C6B6"/>
<path d="M22.2 3.60005C22.2 4.59416 21.3941 5.40005 20.4 5.40005C19.4059 5.40005 18.6 4.59416 18.6 3.60005C18.6 2.60594 19.4059 1.80005 20.4 1.80005C21.3941 1.80005 22.2 2.60594 22.2 3.60005Z" fill="#F6DA93"/>
</svg>
