<svg width="30" height="30" viewBox="0 0 30 30" fill="none" xmlns="http://www.w3.org/2000/svg">
<path d="M7.41667 3H9.58333L10.6667 16.0435H6.33333L7.41667 3Z" fill="#568BDA"/>
<path d="M13.9167 3H16.0833L17.1667 16.0435H12.8333L13.9167 3Z" fill="#568BDA"/>
<path fill-rule="evenodd" clip-rule="evenodd" d="M2 28L4.16667 17.1304H19.3333V8.43478H23.6667L28 12.7826V28H25.8333V23.6522H21.5V28H2ZM17.1667 23.6522H12.8333V25.8261H17.1667V23.6522ZM10.6667 23.6522H6.33333V25.8261H10.6667V23.6522ZM10.6667 19.3043H6.33333V21.4783H10.6667V19.3043ZM17.1667 21.4783H12.8333V19.3043H17.1667V21.4783ZM25.8333 17.1304H21.5V14.9565H23.6667H25.8333V17.1304ZM25.8333 21.4783H21.5V19.3043H25.8333V21.4783Z" fill="#568BDA"/>
</svg>
