<svg width="30" height="30" viewBox="0 0 30 30" fill="none" xmlns="http://www.w3.org/2000/svg">
<path fill-rule="evenodd" clip-rule="evenodd" d="M11.4667 13.2077C12.586 14.4228 13.2992 15.2775 14.3087 16.807C12.5937 19.1155 11.045 21.5599 9.78786 24.0349C7.22019 23.491 4.81712 23.6686 0 25.5C2.74693 21.4876 6.94313 17.0069 11.4667 13.2077Z" fill="#FC3E73"/>
<path fill-rule="evenodd" clip-rule="evenodd" d="M18.5333 13.2077C17.414 14.4228 16.7008 15.2775 15.6913 16.807C16.0157 17.2437 16.3342 17.6853 16.6459 18.131C17.8923 16.54 18.599 15.6944 19.8927 14.3784C19.4436 13.982 18.9901 13.5914 18.5333 13.2077ZM18.2566 20.5719C17.9162 20.0235 17.5639 19.4792 17.2012 18.9403C18.4885 17.3797 19.2315 16.5194 20.6181 15.0275C21.064 15.4316 21.5046 15.8409 21.939 16.2542L18.2566 20.5719ZM18.7753 21.4265C19.287 22.2891 19.7678 23.1601 20.2121 24.0349C22.7798 23.491 25.1829 23.6686 30 25.5C28.1578 22.8091 25.6637 19.9075 22.8562 17.1422L18.7753 21.4265Z" fill="#FC3E73"/>
<path d="M3.02853 4.5C5.97341 6.37412 9.21422 9.21161 12.2314 12.5745C13.1819 13.6339 14.1102 14.7454 15 15.8953C15.8898 14.7454 16.8181 13.6339 17.7686 12.5745C20.7858 9.21161 24.0266 6.37412 26.9715 4.5C23.9578 4.98479 20.2991 6.79107 16.5826 9.31713L15 4.75529L13.4174 9.31713C9.70088 6.79107 6.04223 4.98479 3.02853 4.5Z" fill="#FC3E73"/>
</svg>
