<svg width="40" height="40" viewBox="0 0 40 40" fill="none" xmlns="http://www.w3.org/2000/svg">
<path d="M12.5 22.5H8.125C7.77969 22.5 7.5 22.2203 7.5 21.875V20.625C7.5 20.2797 7.77969 20 8.125 20H12.5V15H8.125C7.77969 15 7.5 14.7203 7.5 14.375V13.125C7.5 12.7797 7.77969 12.5 8.125 12.5H12.5V7.5H8.125C7.77969 7.5 7.5 7.22031 7.5 6.875V5.625C7.5 5.27969 7.77969 5 8.125 5H12.5V2.5C12.5 1.11953 11.3805 0 10 0H2.5C1.11953 0 0 1.11953 0 2.5V37.5C0 37.7164 0.0710938 37.9094 0.122656 38.1094L12.5 25.7328V22.5ZM37.5 27.5H35V31.875C35 32.2203 34.7203 32.5 34.375 32.5H33.125C32.7797 32.5 32.5 32.2203 32.5 31.875V27.5H27.5V31.875C27.5 32.2203 27.2203 32.5 26.875 32.5H25.625C25.2797 32.5 25 32.2203 25 31.875V27.5H20V31.875C20 32.2203 19.7203 32.5 19.375 32.5H18.125C17.7797 32.5 17.5 32.2203 17.5 31.875V27.5H14.268L1.89062 39.8773C2.09063 39.9289 2.28437 40 2.5 40H37.5C38.8805 40 40 38.8805 40 37.5V30C40 28.6195 38.8805 27.5 37.5 27.5Z" fill="#4D6780"/>
</svg>
