<svg width="50" height="50" viewBox="0 0 50 50" fill="none" xmlns="http://www.w3.org/2000/svg">
<path d="M47.9997 24.9999C47.9997 33.0243 43.8903 40.089 37.6611 44.2041C34.0297 46.6031 29.6779 47.9997 24.9999 47.9997C20.831 47.9997 16.9211 46.8906 13.5493 44.9512C6.64741 40.9815 2 33.5334 2 24.9999C2 16.4663 6.64741 9.01822 13.5493 5.04851C16.9211 3.10917 20.831 2 24.9999 2C29.6779 2 34.0297 3.39661 37.6611 5.79561C43.8903 9.91076 47.9997 16.9754 47.9997 24.9999Z" fill="#EA6175"/>
<path d="M25.6052 10.4736L37.6611 17.4341V31.3551L25.6052 38.3156L13.5493 31.3551V17.4341L25.6052 10.4736Z" fill="#EA6175"/>
<path d="M37.6614 44.2043C43.8906 40.0891 48 33.0245 48 25L37.6614 31.3552V44.2043Z" fill="#E83253"/>
<path d="M13.5493 44.9513C16.9211 46.8907 20.831 47.9998 24.9999 47.9998C29.6779 47.9998 34.0297 46.6032 37.6612 44.2042L25.6052 38.3157L13.5493 44.9513Z" fill="#E83253"/>
<path d="M37.6614 31.3553V17.4343L48 25.0001L37.6614 31.3553Z" fill="#BD2A45"/>
<path d="M13.5493 31.3552L25.6052 38.3157L13.5493 44.9514V31.3552Z" fill="#C92740"/>
<path d="M13.5493 5.04858C6.64741 9.0183 2 16.4664 2 25L13.5493 17.4342V5.04858Z" fill="#FCC2BE"/>
<path d="M24.9999 2.00024C20.831 2.00024 16.9211 3.10941 13.5493 5.04875L25.6052 10.4739L37.6612 5.79586C34.0297 3.39685 29.6779 2.00024 24.9999 2.00024Z" fill="#F2BBBB"/>
<path d="M37.6611 17.4342L25.6052 10.4737L37.6611 5.79565V17.4342Z" fill="#EF858C"/>
<path d="M13.5493 17.4343V31.3553L2 25.0001L13.5493 17.4343Z" fill="#EF858C"/>
<path d="M25.6052 10.4737L13.5493 17.4342V5.04858L25.6052 10.4737Z" fill="#EF858C"/>
<path d="M25.6052 10.4739L37.6612 17.4344V31.3553L25.6052 38.3158L13.5493 31.3553V17.4344L25.6052 10.4739Z" fill="#E72E35"/>
<path d="M37.6611 31.3552L25.6052 38.3157L37.6611 44.2043V31.3552Z" fill="#A6193B"/>
<path d="M25.5 14C19.701 14 15 18.701 15 24.5C15 25.8417 15.2516 27.1246 15.7103 28.3041C13.6272 28.8727 11.4851 29.8432 9 31.5C13 31 17 33 19 35C19.2762 34.4476 19.5863 33.9122 19.9209 33.3968C21.1128 31.5612 22.616 29.9803 24.0073 28.795C21.6951 28.1445 20 26.0202 20 23.5C20 20.4624 22.4624 18 25.5 18C28.5376 18 31 20.4624 31 23.5C31 26.0203 29.3049 28.1446 26.9925 28.7951C28.3839 29.9803 29.8871 31.5613 31.079 33.3969C31.4136 33.9122 31.7237 34.4476 31.9999 35C33.9999 33 37.9999 31 41.9999 31.5C39.5148 29.8433 37.3728 28.8727 35.2897 28.3042C35.7483 27.1246 36 25.8417 36 24.5C36 18.701 31.299 14 25.5 14Z" fill="#FFEC86"/>
</svg>
