<svg width="30" height="30" viewBox="0 0 30 30" fill="none" xmlns="http://www.w3.org/2000/svg">
<path fill-rule="evenodd" clip-rule="evenodd" d="M13.5007 27.4697C13.654 27.0535 13.7377 26.6036 13.7377 26.1343C13.7377 23.9993 12.0056 22.2685 9.86886 22.2685C8.97146 22.2685 8.14543 22.5738 7.48911 23.0861C7.74191 22.9682 8.02391 22.9023 8.32131 22.9023C9.4091 22.9023 10.2909 23.7834 10.2909 24.8703C10.2909 25.0912 10.2545 25.3035 10.1874 25.5017C10.924 26.4857 12.3309 27.3291 13.5007 27.4697ZM12.964 28.4541C12.2581 29.3928 11.1344 30 9.86886 30C7.73214 30 5.99999 28.2693 5.99999 26.1343C5.99999 25.5136 6.14637 24.9272 6.4065 24.4074C6.37068 24.5559 6.35171 24.7109 6.35171 24.8703C6.35171 25.9572 7.23353 26.8384 8.32131 26.8384C8.70949 26.8384 9.07145 26.7261 9.37646 26.5324C10.2206 27.4697 11.4867 28.1726 12.964 28.4541Z" fill="url(#paint0_linear_181_312)"/>
<path fill-rule="evenodd" clip-rule="evenodd" d="M6.91086 7.22729C6.91086 1.67468 14.5079 -1.20705 20.2057 0.479815C18.8708 1.8344 18.3064 2.72897 18.3064 4.55641C18.3064 5.92402 19.3106 7.0992 20.4309 8.41018C21.8439 10.0637 23.4415 11.9333 23.4415 14.6776C23.4415 19.5976 17.7437 21.9171 12.3976 21.1439C12.7179 15.9842 10.8967 13.9883 9.26774 12.203C8.03422 10.8512 6.91086 9.62003 6.91086 7.22729ZM18.9153 10.2726C19.6874 11.1891 20.4224 12.0615 20.8388 13.032C16.235 10.852 13.9249 8.9888 9.97659 5.25928C10.2558 4.83948 10.619 4.4397 11.0611 4.0802C13.5147 6.04328 14.9852 7.12658 17.8844 9.00637C18.2187 9.44552 18.5708 9.86357 18.9153 10.2726ZM16.1594 5.47014C15.9839 4.58421 15.97 3.58998 16.1961 2.44783C14.9675 2.44783 13.8836 2.65538 12.9604 3.0044C14.1878 4.10506 14.8889 4.64035 16.1594 5.47014ZM11.3273 11.4874C10.213 10.1795 9.24107 9.03861 9.30252 7.22729C12.6086 11.1633 18.5878 14.1856 21.1247 15.3805C20.9913 16.0788 20.6563 16.7187 20.1353 17.2662C18.0954 16.5753 14.7189 14.4668 11.3273 11.4874ZM14.0457 16.0833C14.2903 16.963 14.4376 17.9783 14.4376 19.1759C15.8679 19.1759 17.095 18.9573 18.0954 18.572C16.4378 17.8181 15.5365 17.3154 14.0457 16.0833Z" fill="url(#paint1_linear_181_312)"/>
<defs>
<linearGradient id="paint0_linear_181_312" x1="8.10671" y1="3.30345" x2="23.3587" y2="18.7084" gradientUnits="userSpaceOnUse">
<stop offset="0.0245617" stop-color="#F77C25"/>
<stop offset="0.229167" stop-color="#BAB140"/>
<stop offset="0.486519" stop-color="#88C862"/>
<stop offset="0.72926" stop-color="#1FAFE4"/>
<stop offset="1" stop-color="#F358A9"/>
</linearGradient>
<linearGradient id="paint1_linear_181_312" x1="8.10671" y1="3.30345" x2="23.3587" y2="18.7084" gradientUnits="userSpaceOnUse">
<stop offset="0.0245617" stop-color="#F77C25"/>
<stop offset="0.229167" stop-color="#BAB140"/>
<stop offset="0.486519" stop-color="#88C862"/>
<stop offset="0.72926" stop-color="#1FAFE4"/>
<stop offset="1" stop-color="#F358A9"/>
</linearGradient>
</defs>
</svg>
