<svg width="100" height="100" viewBox="0 0 100 100" fill="none" xmlns="http://www.w3.org/2000/svg">
<path d="M59.3345 59.3345C46.4472 72.2218 25.5528 72.2218 12.6655 59.3345C-0.221826 46.4472 -0.221826 25.5528 12.6655 12.6655C22.7624 2.56852 37.7745 0.382339 49.9999 6.10693M59.3345 59.3345L68.0009 68.0009M59.3345 59.3345C66.6697 51.9994 69.8298 42.0703 68.815 32.5C68.4019 28.604 67.2968 24.7675 65.4999 21.1896M68.0009 68.0009H72.5251C75.1773 68.0009 77.7208 69.0545 79.5962 70.9298L92.2051 83.5388C93.3544 84.688 94 86.2467 94 87.872V87.872C94 91.2564 91.2564 94 87.872 94V94C86.2467 94 84.688 93.3544 83.5388 92.2051L81.0005 89.6668M68.0009 68.0009V72.5251C68.0009 75.1773 69.0545 77.7208 70.9298 79.5962L72.3341 81.0005M28 54.3359C30.4498 55.4062 33.1555 56 35.9999 56C47.0456 56 55.9999 47.0457 55.9999 36C55.9999 24.9543 47.0456 16 35.9999 16C24.9542 16 15.9999 24.9543 15.9999 36C15.9999 38.8444 16.5937 41.5502 17.6641 44" stroke="#4D6780" stroke-width="5" stroke-linecap="round"/>
</svg>
