<svg width="100" height="100" viewBox="0 0 100 100" fill="none" xmlns="http://www.w3.org/2000/svg">
<path d="M59.3958 50C59.3958 55.2878 55.1091 59.5745 49.8213 59.5745C44.5335 59.5745 40.2468 55.2878 40.2468 50C40.2468 44.7122 44.5335 40.4255 49.8213 40.4255C55.1091 40.4255 59.3958 44.7122 59.3958 50Z" fill="#4D6780"/>
<path fill-rule="evenodd" clip-rule="evenodd" d="M0 45.7447C2.15943 20.1222 23.6405 0 49.8215 0C76.0024 0 97.4835 20.1222 99.6429 45.7447H96.9256C96.8512 44.9131 96.7551 44.0877 96.638 43.2691C93.3721 20.4364 73.7357 2.88461 49.9999 2.88461C26.2641 2.88461 6.62771 20.4364 3.36174 43.2691C3.24466 44.0877 3.14861 44.9131 3.07417 45.7447H0ZM59.3958 50C59.3958 55.2878 55.1091 59.5745 49.8213 59.5745C44.5335 59.5745 40.2468 55.2878 40.2468 50C40.2468 44.7122 44.5335 40.4255 49.8213 40.4255C55.1091 40.4255 59.3958 44.7122 59.3958 50Z" fill="#4D6780"/>
<path d="M32.2398 45.7447C34.1534 37.8099 41.299 31.9149 49.8215 31.9149C58.3439 31.9149 65.4895 37.8099 67.4031 45.7447H94.0285C93.9491 44.9126 93.8466 44.0872 93.7217 43.2691C90.4799 22.0356 72.1395 5.76922 49.9999 5.76922C27.8603 5.76922 9.51992 22.0356 6.27807 43.2691C6.15318 44.0872 6.05069 44.9126 5.97127 45.7447H32.2398Z" fill="#4D6780"/>
<path d="M3.36174 43.2691C3.24466 44.0877 3.14861 44.9131 3.07417 45.7447H5.97127C6.05069 44.9126 6.15318 44.0872 6.27807 43.2691H3.36174Z" fill="#4D6780"/>
<path d="M96.9256 45.7447C96.8512 44.9131 96.7551 44.0877 96.638 43.2691H93.7217C93.8466 44.0872 93.9491 44.9126 94.0285 45.7447H96.9256Z" fill="#4D6780"/>
<path d="M49.8215 68.0852C41.299 68.0852 34.1534 62.1902 32.2398 54.2554H5.9713C6.05072 55.0874 6.15319 55.9127 6.27807 56.7306C9.51992 77.9641 27.8603 94.2305 49.9999 94.2305C72.1395 94.2305 90.4799 77.9641 93.7217 56.7306C93.8466 55.9127 93.9491 55.0874 94.0285 54.2554H67.4031C65.4895 62.1902 58.3439 68.0852 49.8215 68.0852Z" fill="#6C8093"/>
<path d="M0 54.2554C2.15943 79.8779 23.6405 100 49.8215 100C76.0024 100 97.4835 79.8779 99.6429 54.2554H96.9256C96.8511 55.0868 96.7551 55.9121 96.638 56.7306C93.3721 79.5633 73.7357 97.1151 49.9999 97.1151C26.2641 97.1151 6.62771 79.5633 3.36174 56.7306C3.24467 55.9121 3.14863 55.0868 3.0742 54.2554H0Z" fill="#6C8093"/>
<path d="M6.27807 56.7306C6.15319 55.9127 6.05072 55.0874 5.9713 54.2554H3.0742C3.14863 55.0868 3.24467 55.9121 3.36174 56.7306H6.27807Z" fill="#6C8093"/>
<path d="M96.9256 54.2554H94.0285C93.9491 55.0874 93.8466 55.9127 93.7217 56.7306H96.638C96.7551 55.9121 96.8511 55.0868 96.9256 54.2554Z" fill="#6C8093"/>
</svg>
