<svg width="100" height="100" viewBox="0 0 100 100" fill="none" xmlns="http://www.w3.org/2000/svg">
<path d="M89.1598 24C92.8449 29.5392 95.386 35.9049 96.4459 42.7599C96.7143 44.4955 95.3251 46 93.5688 46H68.8894C67.5035 46 66.3239 45.0379 65.8141 43.7491C63.3235 37.4533 57.1819 33 50.0001 33C42.8184 33 36.6768 37.4533 34.1862 43.7491C33.6764 45.0379 32.4968 46 31.1109 46H6.43144C4.6752 46 3.28627 44.4933 3.55472 42.7577C7.03763 20.2388 26.5057 3 50.0001 3C58.3552 3 66.2011 5.18012 73 9.00252M50.0001 97C26.5057 97 7.03763 79.7612 3.55471 57.2423C3.28627 55.5067 4.6752 54 6.43144 54H31.1109C32.4968 54 33.6764 54.9621 34.1862 56.2509C36.6768 62.5467 42.8184 67 50.0001 67C57.1819 67 63.3235 62.5467 65.8141 56.2509C66.3239 54.9621 67.5035 54 68.8894 54H93.5688C95.3251 54 96.714 55.5067 96.4456 57.2423C92.9627 79.7612 73.4946 97 50.0001 97ZM57 50C57 53.866 53.866 57 50 57C46.134 57 43 53.866 43 50C43 46.134 46.134 43 50 43C53.866 43 57 46.134 57 50Z" stroke="#324E67" stroke-width="5" stroke-linecap="round" stroke-linejoin="round"/>
</svg>
