<svg width="100" height="100" viewBox="0 0 100 100" fill="none" xmlns="http://www.w3.org/2000/svg">
<path d="M19.9998 58.448V91.4478C19.9998 93.1047 21.3429 94.4478 22.9998 94.4478H37.9998C39.6566 94.4478 40.9998 93.1047 40.9998 91.4478V71.448C40.9998 69.7911 42.3429 68.448 43.9998 68.448H55.9998C57.6566 68.448 58.9998 69.7911 58.9998 71.448V91.4478C58.9998 93.1047 60.3429 94.4478 61.9998 94.4478H76.9998C78.6566 94.4478 79.9998 93.1047 79.9998 91.4478V58.448M57.4998 47.4479C57.4998 51.5901 54.1419 54.9479 49.9998 54.9479C45.8577 54.9479 42.4998 51.5901 42.4998 47.4479C42.4998 43.3058 45.8577 39.9479 49.9998 39.9479M61.7498 15.237L51.9705 6.71693C50.841 5.73286 49.1586 5.73286 48.0291 6.71694L5.13949 44.084C3.93913 45.1298 3.76471 46.9311 4.74212 48.1878L8.05162 52.4429C9.1095 53.803 11.0931 53.9945 12.3916 52.8619L46.7905 22.8583C48.6738 21.2155 51.4809 21.2157 53.3641 22.8586L86.8879 52.1056C88.0768 53.1428 89.8658 53.0819 90.9814 51.9663L94.7274 48.2203C95.9563 46.9914 95.8872 44.9787 94.5768 43.837L79.3747 30.5925" stroke="#4D6780" stroke-width="5" stroke-linecap="round"/>
</svg>
