<svg width="100" height="100" viewBox="0 0 100 100" fill="none" xmlns="http://www.w3.org/2000/svg">
<path d="M19.9998 58.448V91.4478C19.9998 93.1047 21.3429 94.4478 22.9998 94.4478H37.9998C39.6566 94.4478 40.9998 93.1047 40.9998 91.4478V71.448C40.9998 69.7911 42.3429 68.448 43.9998 68.448H55.9998C57.6566 68.448 58.9998 69.7911 58.9998 71.448V91.4478C58.9998 93.1047 60.3429 94.4478 61.9998 94.4478H76.9998C78.6566 94.4478 79.9998 93.1047 79.9998 91.4478V58.448M83.7498 34.211L94.614 43.8347C95.9076 44.9806 95.9681 46.9797 94.7461 48.2016L90.9814 51.9663C89.8658 53.0819 88.0768 53.1428 86.8879 52.1056L53.3641 22.8586C51.4809 21.2157 48.6738 21.2155 46.7905 22.8583L12.3916 52.8619C11.0931 53.9945 9.1095 53.803 8.05162 52.4429L4.74212 48.1878C3.76471 46.9311 3.93913 45.1298 5.13949 44.084L48.0356 6.71129C49.1623 5.72966 50.8397 5.72692 51.9696 6.70487L66.8748 19.6055M57.4998 47.4479C57.4998 51.5901 54.1419 54.9479 49.9998 54.9479C45.8577 54.9479 42.4998 51.5901 42.4998 47.4479C42.4998 43.3058 45.8577 39.9479 49.9998 39.9479" stroke="#324E67" stroke-width="5" stroke-linecap="round"/>
</svg>
