<svg width="50" height="50" viewBox="0 0 50 50" fill="none" xmlns="http://www.w3.org/2000/svg">
<path d="M9.97754 38.5C7.47746 38.5 5.47735 40 3.47745 42.5C1.47754 45 6.26843 45.9875 8.47754 46C10.0518 46.0089 10.4339 44.3087 11.9775 44C13.5212 43.6913 14 45.1 15.5 44.5C18 43.5 16 41 18.5 40.5C21 40 22.9775 35 22.9775 35C17.9775 38.5 13.5 38.5 9.97754 38.5Z" fill="#EED289"/>
<path d="M46.5001 42.5C44.5002 40 42.5001 38.5 40 38.5C36.4775 38.5 32 38.5 27.0001 35C27.0001 35 28.9775 40 31.4775 40.5C33.9775 41 31.9775 43.5 34.4775 44.5C35.9775 45.1 36.4563 43.6913 38 44C39.5437 44.3087 39.9258 46.0089 41.5 46C43.7091 45.9875 48.5 45 46.5001 42.5Z" fill="#EED289"/>
<path d="M16.9993 15C16.9993 11 19.9993 6 24.9993 3C29.9993 6 32.9993 11 32.9993 15C37.9993 15 43.9993 19 45.9993 23C44.4993 26 41.4993 28 38.9993 28C39.9993 29.5 39.9993 31 39.9993 31.5C39.9993 32.8807 38.88 34 37.4993 34C36.8792 34 36.3118 33.7742 35.8748 33.4003C33.4993 31.3677 32.4993 26 33.9993 23C33.5976 22.1966 32.2277 21.3932 30.6675 21.1084C29.3953 22.8606 27.3304 24 24.9993 24C22.6683 24 20.6034 22.8606 19.3311 21.1084C17.7709 21.3932 16.401 22.1966 15.9993 23C17.4993 26 16.4993 31.3677 14.1238 33.4003C13.6869 33.7742 13.1195 34 12.4993 34C11.1186 34 9.99933 32.8807 9.99933 31.5C9.99933 31 9.99933 29.5 10.9993 28C8.49934 28 5.49933 26 3.99933 23C5.99933 19 11.9993 15 16.9993 15Z" fill="#EED289"/>
<path d="M9.97754 38.5C7.47746 38.5 5.47735 40 3.47745 42.5C1.47754 45 6.26843 45.9875 8.47754 46C10.0518 46.0089 10.4339 44.3087 11.9775 44C13.5212 43.6913 14 45.1 15.5 44.5C18 43.5 16 41 18.5 40.5C21 40 22.9775 35 22.9775 35C17.9775 38.5 13.5 38.5 9.97754 38.5Z" stroke="black" stroke-width="0.2"/>
<path d="M46.5001 42.5C44.5002 40 42.5001 38.5 40 38.5C36.4775 38.5 32 38.5 27.0001 35C27.0001 35 28.9775 40 31.4775 40.5C33.9775 41 31.9775 43.5 34.4775 44.5C35.9775 45.1 36.4563 43.6913 38 44C39.5437 44.3087 39.9258 46.0089 41.5 46C43.7091 45.9875 48.5 45 46.5001 42.5Z" stroke="black" stroke-width="0.2"/>
<path d="M16.9993 15C16.9993 11 19.9993 6 24.9993 3C29.9993 6 32.9993 11 32.9993 15C37.9993 15 43.9993 19 45.9993 23C44.4993 26 41.4993 28 38.9993 28C39.9993 29.5 39.9993 31 39.9993 31.5C39.9993 32.8807 38.88 34 37.4993 34C36.8792 34 36.3118 33.7742 35.8748 33.4003C33.4993 31.3677 32.4993 26 33.9993 23C33.5976 22.1966 32.2277 21.3932 30.6675 21.1084C29.3953 22.8606 27.3304 24 24.9993 24C22.6683 24 20.6034 22.8606 19.3311 21.1084C17.7709 21.3932 16.401 22.1966 15.9993 23C17.4993 26 16.4993 31.3677 14.1238 33.4003C13.6869 33.7742 13.1195 34 12.4993 34C11.1186 34 9.99933 32.8807 9.99933 31.5C9.99933 31 9.99933 29.5 10.9993 28C8.49934 28 5.49933 26 3.99933 23C5.99933 19 11.9993 15 16.9993 15Z" stroke="black" stroke-width="0.2"/>
<path d="M23.1046 16.9L23.5956 6.1H26.4044L26.8954 16.9H23.1046ZM43.1046 34.9L43.5956 24.1H46.4044L46.8954 34.9H43.1046ZM3.10465 34.9L3.59556 24.1H6.40444L6.89535 34.9H3.10465Z" fill="#43BEC3"/>
<path d="M23.1046 16.9L23.5956 6.1H26.4044L26.8954 16.9H23.1046ZM43.1046 34.9L43.5956 24.1H46.4044L46.8954 34.9H43.1046ZM3.10465 34.9L3.59556 24.1H6.40444L6.89535 34.9H3.10465Z" fill="#43BEC3"/>
<path d="M23.1046 16.9L23.5956 6.1H26.4044L26.8954 16.9H23.1046ZM43.1046 34.9L43.5956 24.1H46.4044L46.8954 34.9H43.1046ZM3.10465 34.9L3.59556 24.1H6.40444L6.89535 34.9H3.10465Z" stroke="black" stroke-width="0.2"/>
<ellipse cx="20.5" cy="28.5" rx="1.5" ry="2.5" fill="black"/>
<g filter="url(#filter0_f_520_352)">
<ellipse cx="20.5" cy="28.5" rx="1.5" ry="2.5" fill="#808589"/>
</g>
<ellipse cx="20.5" cy="27.5" rx="0.7" ry="0.8" fill="#D9D9D9"/>
<ellipse cx="28.5" cy="28.5" rx="1.5" ry="2.5" fill="black"/>
<g filter="url(#filter1_f_520_352)">
<ellipse cx="28.5" cy="28.5" rx="1.5" ry="2.5" fill="#81868A"/>
</g>
<ellipse cx="28.5" cy="27.5" rx="0.7" ry="0.8" fill="#D9D9D9"/>
<defs>
<filter id="filter0_f_520_352" x="16" y="23" width="9" height="11" filterUnits="userSpaceOnUse" color-interpolation-filters="sRGB">
<feFlood flood-opacity="0" result="BackgroundImageFix"/>
<feBlend mode="normal" in="SourceGraphic" in2="BackgroundImageFix" result="shape"/>
<feGaussianBlur stdDeviation="1.5" result="effect1_foregroundBlur_520_352"/>
</filter>
<filter id="filter1_f_520_352" x="24" y="23" width="9" height="11" filterUnits="userSpaceOnUse" color-interpolation-filters="sRGB">
<feFlood flood-opacity="0" result="BackgroundImageFix"/>
<feBlend mode="normal" in="SourceGraphic" in2="BackgroundImageFix" result="shape"/>
<feGaussianBlur stdDeviation="1.5" result="effect1_foregroundBlur_520_352"/>
</filter>
</defs>
</svg>
