<svg width="50" height="50" viewBox="0 0 50 50" fill="none" xmlns="http://www.w3.org/2000/svg">
<path d="M8.79224 44.0362C18.6146 52.4176 33.3906 51.9648 42.6776 42.6777C51.9647 33.3907 52.4175 18.6147 44.0361 8.79236L32.6204 20.208C34.8114 23.6852 34.3926 28.3354 31.3639 31.364C28.3353 34.3927 23.6851 34.8115 20.2079 32.6206L8.79224 44.0362Z" fill="black" fill-opacity="0.15"/>
<path d="M28.5355 21.4644C30.4882 23.417 30.4882 26.5829 28.5355 28.5355C26.5829 30.4881 23.4171 30.4881 21.4645 28.5355C19.5118 26.5829 19.5118 23.417 21.4645 21.4644C23.4171 19.5118 26.5829 19.5118 28.5355 21.4644Z" fill="black" fill-opacity="0.3"/>
<path d="M41.2077 5.96386C31.3854 -2.41757 16.6094 -1.96475 7.32233 7.32233C-1.96474 16.6094 -2.41757 31.3854 5.96386 41.2077L17.3795 29.7921C15.1885 26.3149 15.6074 21.6647 18.636 18.636C21.6647 15.6074 26.3149 15.1885 29.7921 17.3795L41.2077 5.96386Z" fill="black" fill-opacity="0.3"/>
</svg>
