<svg width="11" height="16" viewBox="0 0 11 16" fill="none" xmlns="http://www.w3.org/2000/svg">
<path d="M5.47099 0C2.99576 0 1.39255 1.01414 0.133865 2.82276C-0.094465 3.15085 -0.0240712 3.60069 0.294438 3.8422L1.63217 4.85652C1.95384 5.10042 2.41153 5.04339 2.66336 4.72789C3.44014 3.75475 4.01635 3.19445 5.2297 3.19445C6.18371 3.19445 7.36372 3.80843 7.36372 4.73354C7.36372 5.43289 6.78639 5.79205 5.84442 6.32016C4.74593 6.93603 3.29229 7.70248 3.29229 9.61983V9.92336C3.29229 10.3344 3.62549 10.6676 4.03654 10.6676H6.2839C6.69494 10.6676 7.02815 10.3344 7.02815 9.92336V9.74434C7.02815 8.41523 10.9128 8.35987 10.9128 4.76321C10.9128 2.05463 8.10319 0 5.47099 0ZM5.16023 11.5812C3.97576 11.5812 3.01211 12.5448 3.01211 13.7293C3.01211 14.9137 3.97576 15.8774 5.16023 15.8774C6.34471 15.8774 7.30836 14.9137 7.30836 13.7293C7.30836 12.5448 6.34471 11.5812 5.16023 11.5812Z" fill="white"/>
</svg>
